<?xml version="1.0" encoding="utf-8"?>
<!-- Generator: Adobe Illustrator 22.0.0, SVG Export Plug-In . SVG Version: 6.00 Build 0)  -->
<svg version="1.1" id="Calque_1" xmlns="http://www.w3.org/2000/svg" xmlns:xlink="http://www.w3.org/1999/xlink" x="0px" y="0px"
	 viewBox="0 0 100 125" style="enable-background:new 0 0 100 125;" xml:space="preserve">
<style type="text/css">
	.st0{fill:#FFFFFF;}
</style>
<title>Close 3.5</title>
<desc>Created with Sketch.</desc>
<g>
	<g>
		<path class="st0" d="M54.4,48.6c-0.8,0.8-0.8,2,0,2.8l18.2,18.2c0.8,0.8,0.8,2,0,2.8l-0.2,0.2c-0.8,0.8-2,0.8-2.8,0L51.4,54.4
			c-0.8-0.8-2-0.8-2.8,0L30.4,72.6c-0.8,0.8-2,0.8-2.8,0l-0.2-0.2c-0.8-0.8-0.8-2,0-2.8l18.2-18.2c0.8-0.8,0.8-2,0-2.8L27.4,30.4
			c-0.8-0.8-0.8-2,0-2.8l0.2-0.2c0.8-0.8,2-0.8,2.8,0l18.2,18.2c0.8,0.8,2,0.8,2.8,0l18.2-18.2c0.8-0.8,2-0.8,2.8,0l0.2,0.2
			c0.8,0.8,0.8,2,0,2.8L54.4,48.6z"/>
	</g>
</g>
</svg>
