<?xml version="1.0" encoding="utf-8"?>
<!-- Generator: Adobe Illustrator 22.0.0, SVG Export Plug-In . SVG Version: 6.00 Build 0)  -->
<svg version="1.1" id="Calque_1" xmlns="http://www.w3.org/2000/svg" xmlns:xlink="http://www.w3.org/1999/xlink" x="0px" y="0px"
	 viewBox="0 0 32 40" style="enable-background:new 0 0 32 40;" xml:space="preserve">
<style type="text/css">
	.st0{fill:#FFFFFF;}
</style>
<title>menu</title>
<path class="st0" d="M1.2,3.4C1.2,3.4,1.1,3.4,1.2,3.4C0.5,3.4,0,4,0,4.6s0.5,1.1,1.1,1.1c0,0,0,0,0,0h29.7c0,0,0,0,0,0
	c0.6,0,1.1-0.5,1.1-1.1s-0.5-1.1-1.1-1.1c0,0,0,0,0,0L1.2,3.4z M1.2,14.9C1.2,14.9,1.1,14.9,1.2,14.9C0.5,14.9,0,15.4,0,16
	s0.5,1.1,1.1,1.1c0,0,0,0,0,0h29.7c0,0,0,0,0,0c0.6,0,1.1-0.5,1.1-1.1s-0.5-1.1-1.1-1.1c0,0,0,0,0,0H1.2z M1.2,26.3
	C1.2,26.3,1.1,26.3,1.2,26.3c-0.6,0-1.2,0.5-1.2,1.1s0.5,1.1,1.1,1.1c0,0,0,0,0,0h29.7c0,0,0,0,0,0c0.6,0,1.1-0.5,1.1-1.1
	s-0.5-1.1-1.1-1.1c0,0,0,0,0,0H1.2z"/>
</svg>
