<?xml version="1.0" encoding="utf-8"?>
<!-- Generator: Adobe Illustrator 22.0.0, SVG Export Plug-In . SVG Version: 6.00 Build 0)  -->
<svg version="1.1" id="Penne" xmlns="http://www.w3.org/2000/svg" xmlns:xlink="http://www.w3.org/1999/xlink" x="0px" y="0px"
	 viewBox="0 0 63 25" style="enable-background:new 0 0 63 25;" xml:space="preserve">
<style type="text/css">
	.st0{fill:#FCFBDB;}
	.st1{fill:#2B2B2B;}
	.st2{fill:#FFFFFF;}
	.st3{fill:#FFDA00;}
</style>
<g id="Fond_penne">
	<polygon class="st0" points="4.9,16.7 8.7,10 13.9,5.3 19.6,2.7 26.7,2.6 29.8,3.7 34.2,5.6 37.5,7.6 39.2,15.5 6,22.2 	"/>
	<polygon class="st1" points="58.1,19.2 39.6,15.7 23.7,19.1 26.5,20.3 34,21.8 40.5,22.3 47,22.4 52.5,21.5 57.3,20.4 	"/>
</g>
<g id="Ruban">
	<polyline class="st2" points="6.6,21.2 38.5,15.1 37.5,11.3 5.7,17.9 6.6,21.2 	"/>
	<polyline class="st3" points="5.3,19.7 38,13.3 37.5,11.3 5.6,17.9 6.6,21.2 	"/>
</g>
<g id="Contours">
	<g>
		<path d="M4,17.1l1.3,5.1c0.1,0.4,0.4,0.7,0.8,0.7c0.1,0,0.1,0,0.2,0l16-3.1c11.5,4.4,28.3,4,35.9,1.1c0.5-0.2,0.9-0.8,0.8-1.4
			c0-0.6-0.5-1.1-1.1-1.3l-18-3.1c-2.1-8.3-2-8.3-2.4-8.6c-6.8-4.5-13.2-5.9-19-4.1C8.8,5.4,4.3,16.2,4.1,16.7v0.1
			c0,0.1,0,0.1,0,0.2S4.1,17,4,17.1L4,17.1z M25.2,19.2l14.2-2.7l17.9,3.1C53.2,21,37.8,23.4,25.2,19.2z M36.6,8l1.8,7L6.6,21.2
			l-0.9-3.7l0.5-1.8C12.5,3.8,22.9-0.6,35.4,6.8"/>
	</g>
</g>
</svg>
