<?xml version="1.0" encoding="utf-8"?>
<!-- Generator: Adobe Illustrator 22.0.0, SVG Export Plug-In . SVG Version: 6.00 Build 0)  -->
<svg version="1.1" id="Calque_1" xmlns="http://www.w3.org/2000/svg" xmlns:xlink="http://www.w3.org/1999/xlink" x="0px" y="0px"
	 viewBox="0 0 52 52" style="enable-background:new 0 0 52 52;" xml:space="preserve">
<style type="text/css">
	.st0{display:none;}
	.st1{fill:#F2F2F2;}
	.st2{fill:#161616;}
	.st3{fill:#1E821E;}
	.st4{display:none;fill:none;stroke:#000000;stroke-width:1.3;stroke-miterlimit:10;}
	.st5{fill:#FC0D1B;}
	.st6{fill:#FDCA2F;}
	.st7{fill:#159839;}
</style>
<g id="Calque_11" class="st0">
	
		<image style="display:inline;overflow:visible;enable-background:new    ;" width="2560" height="1600" xlink:href="../../../../Desktop/Capture d’écran 2019-09-02 à 10.48.36.png"  transform="matrix(1.384812e-02 0 0 1.384812e-02 58.7569 -6.8904)">
	</image>
	
		<image style="display:inline;overflow:visible;enable-background:new    ;" width="2560" height="1600" xlink:href="../../../../Desktop/Capture d’écran 2019-09-02 à 10.48.44.png"  transform="matrix(1.395603e-02 0 0 1.395603e-02 58.7569 17.0506)">
	</image>
	
		<image style="display:inline;overflow:visible;enable-background:new    ;" width="2560" height="1600" xlink:href="../../../../Desktop/Capture d’écran 2019-09-02 à 10.48.51.png"  transform="matrix(1.424378e-02 0 0 1.424378e-02 58.2965 41.2219)">
	</image>
</g>
<g id="Rabat">
	<g id="Calque_10">
		<polygon class="st1" points="20.4,4.1 33.1,4.1 32.8,11.5 20.4,11.5 		"/>
	</g>
	<g id="Contour">
		<rect x="19.2" y="3.5" width="14.8" height="1.3"/>
	</g>
</g>
<g id="Toge">
	<g id="Fond">
		<polygon id="Toge_1_" class="st2" points="4,16.7 13.8,4.1 20.1,4.1 20.4,11.6 32.8,11.6 33.3,4.1 39,4.1 48.5,16.8 42.2,21.3 
			38.9,16.5 41.6,44.2 11.8,44.3 13.9,16.3 10.1,21.4 		"/>
		<polygon id="Bas" class="st2" points="11.8,44.3 41.6,44.2 41.9,48.4 11.4,48.1 		"/>
		<g id="Manches">
			<polygon class="st3" points="48.5,16.8 50.4,19.2 44.6,23.8 42.2,21.3 			"/>
			<polygon class="st1" points="47.4,15.1 48.6,16.8 42.8,21.4 41.1,19.6 			"/>
			<polygon class="st3" points="4,16.7 10.1,21.4 8.2,24.1 2.4,19.2 			"/>
			<polygon class="st1" points="5.2,15.2 11.2,19.9 9.7,21.9 3.9,17.1 			"/>
		</g>
	</g>
	<g id="Contours">
		<path d="M41.5,48.9H11.9c-0.6,0-1-0.5-1-1.2l2.3-29.2l-4,5.6c-0.5,0.5-1.1,0.5-1.6,0.2l-5.3-4.1c-0.5-0.5-0.6-1.3-0.2-1.8L13.2,4
			c0.2-0.4,0.6-0.6,0.9-0.6H20c0.6,0,1,0.5,1,1v6.6h11.4V4.4c0-0.6,0.5-1,1.1-1h5.3c0.4,0,0.8,0.2,1,0.6l10.8,14.5
			c0.4,0.6,0.3,1.2-0.2,1.6l-5.3,4.1c-0.2,0.2-0.5,0.3-0.9,0.3c-0.4,0-0.7-0.2-0.9-0.5l-3.7-5.2l2.8,28.9c0.1,0.3,0,0.6-0.1,0.8
			C42.2,48.7,41.9,48.9,41.5,48.9z M12.2,47.5h29.1l-3-31.7l0.8-0.1h0.7l0,0.5l4.8,6.8l5.1-3.9L38.8,4.6h-5v6.6c0,0.6-0.5,1.1-1,1.1
			H20.8c-0.6,0-1-0.5-1-1.1V4.8l-5.5,0L3.1,19.2l5.2,4l5.3-7.5h1.1L12.2,47.5z M44.4,23.1C44.4,23.1,44.3,23.1,44.4,23.1L44.4,23.1z
			 M3,19.3L3,19.3C3,19.3,3,19.3,3,19.3z"/>
		<rect x="6.1" y="15.9" transform="matrix(0.6 -0.8 0.8 0.6 -13.0398 13.2201)" width="1.3" height="7.5"/>
		<rect x="7.7" y="13.6" transform="matrix(0.6 -0.8 0.8 0.6 -10.5201 13.66)" width="1.3" height="7.5"/>
		<rect x="42.2" y="18.8" transform="matrix(0.806 -0.5919 0.5919 0.806 -2.6377 30.9522)" width="7.4" height="1.3"/>
		<rect x="40.3" y="16.8" transform="matrix(0.806 -0.5919 0.5919 0.806 -1.7634 29.42)" width="7.4" height="1.3"/>
		<line class="st4" x1="11.9" y1="44.5" x2="41.4" y2="44.5"/>
	</g>
</g>
<g id="Epitoge">
	<g id="Calque_5">
		<polygon class="st1" points="11.3,7.5 13.9,4.3 15.6,4.3 15.7,34.5 11.3,34.6 		"/>
		<polygon class="st1" points="15.6,34.9 11.3,34.6 11.2,38.1 15.6,38.1 		"/>
		<polygon class="st5" points="15.7,31.4 11.3,31.2 11.3,34.7 15.6,34.7 		"/>
		<polygon class="st6" points="15.7,27.1 11.4,26.9 11.3,30.4 15.7,30.4 		"/>
		<polygon class="st7" points="15.8,23.7 11.4,23.5 11.4,27 15.7,26.9 		"/>
	</g>
	<g id="Contours_1_">
		<rect x="11.1" y="34.1" width="4.5" height="1.3"/>
		<rect x="11.1" y="30.2" width="4.5" height="1.3"/>
		<rect x="11.3" y="26.4" width="4.4" height="1.3"/>
		<rect x="11.3" y="22.5" width="4.4" height="1.3"/>
		<path d="M15.3,39h-3.8c-0.5,0-0.9-0.4-0.9-0.9l0.1-30.7l2.8-3.5l2.9-0.2l-0.3,34.4C16.1,38.6,15.8,39,15.3,39z M14.9,38.1
			C14.9,38.1,14.9,38.1,14.9,38.1L14.9,38.1z M12,37.6h2.9l0.3-32.6l-0.9,0L12,7.8L12,37.6z"/>
	</g>
</g>
</svg>
