<?xml version="1.0" encoding="utf-8"?>
<!-- Generator: Adobe Illustrator 22.0.0, SVG Export Plug-In . SVG Version: 6.00 Build 0)  -->
<svg version="1.1" xmlns="http://www.w3.org/2000/svg" xmlns:xlink="http://www.w3.org/1999/xlink" x="0px" y="0px"
	 viewBox="0 0 52 52" style="enable-background:new 0 0 52 52;" xml:space="preserve">
<style type="text/css">
	.st0{display:none;}
	.st1{fill:#161616;}
	.st2{fill:#650965;}
	.st3{fill:#1E821E;}
	.st4{display:inline;fill:#159839;}
	.st5{display:inline;fill:none;stroke:#FC0D1B;stroke-width:2;stroke-miterlimit:10;}
	.st6{fill:#F2F2F2;}
	.st7{fill:none;stroke:#000000;stroke-width:1.3;stroke-miterlimit:10;}
</style>
<g id="Calque_11" class="st0">
	
		<image style="display:inline;overflow:visible;" width="2560" height="1600" xlink:href="../../../../Desktop/Capture d’écran 2019-09-02 à 10.48.36.png"  transform="matrix(1.384812e-02 0 0 1.384812e-02 58.7569 -6.8904)">
	</image>
	
		<image style="display:inline;overflow:visible;" width="2560" height="1600" xlink:href="../../../../Desktop/Capture d’écran 2019-09-02 à 10.48.44.png"  transform="matrix(1.395603e-02 0 0 1.395603e-02 58.7569 17.0506)">
	</image>
	
		<image style="display:inline;overflow:visible;" width="2560" height="1600" xlink:href="../../../../Desktop/Capture d’écran 2019-09-02 à 10.48.51.png"  transform="matrix(1.424378e-02 0 0 1.424378e-02 58.2965 41.2219)">
	</image>
</g>
<g id="Rabat">
	<g id="Calque_10">
		<polygon class="st1" points="20.4,4.1 33.1,4.1 32.8,11.5 20.4,11.5 		"/>
	</g>
	<g id="Contour">
		<rect x="19.2" y="3.5" width="14.8" height="1.3"/>
	</g>
</g>
<g id="Toge">
	<g id="Fond">
		<polygon id="Toge_1_" class="st2" points="4,16.7 13.8,4.1 20.1,4.1 20.4,11.6 32.8,11.6 33.3,4.1 39,4.1 48.5,16.8 42.2,21.3 
			38.9,16.5 41.6,44.2 11.8,44.3 13.9,16.3 10.1,21.4 		"/>
		<polygon id="Bas" class="st1" points="11.8,44.3 41.6,44.2 41.9,48.4 11.4,48.1 		"/>
		<g id="Manches">
			<polygon class="st3" points="48.5,16.8 50.4,19.2 44.6,23.8 42.2,21.3 			"/>
			<polygon class="st1" points="48.5,16.8 50.4,19.2 44.6,23.8 42.2,21.3 			"/>
			<polygon class="st1" points="4,16.7 10.1,21.4 8.2,24.1 2.4,19.2 			"/>
		</g>
	</g>
	<g id="Logo_info" class="st0">
		<rect x="19.6" y="19.4" class="st4" width="14.1" height="2.6"/>
		<rect x="19.6" y="34.6" class="st4" width="14.1" height="2.6"/>
		
			<rect x="20.4" y="27" transform="matrix(-1.836970e-16 1 -1 -1.836970e-16 55.0289 1.6385)" class="st4" width="12.6" height="2.6"/>
		<circle class="st5" cx="26.6" cy="28.2" r="5.3"/>
		<line class="st5" x1="20.4" y1="33.6" x2="33" y2="23"/>
	</g>
	<g id="Contours">
		<path d="M41.5,48.8H11.9c-0.3,0-0.6-0.1-0.8-0.3c-0.2-0.2-0.3-0.5-0.3-0.8l2.4-29.1l-4,5.5c-0.2,0.3-0.5,0.4-0.8,0.5
			c-0.3,0-0.7,0-0.9-0.2l-5.3-4.1C1.7,19.8,1.6,19,2,18.5L13.2,4c0.2-0.3,0.6-0.5,1-0.5l5.9,0c0,0,0,0,0,0c0.3,0,0.5,0.1,0.7,0.3
			c0.2,0.2,0.3,0.5,0.3,0.7v6.6h11.3V4.5c0-0.6,0.5-1.1,1.1-1.1h5.3c0.4,0,0.8,0.2,1,0.5l10.7,14.5c0.4,0.5,0.3,1.3-0.2,1.7l-5.2,4
			c-0.3,0.2-0.6,0.3-0.9,0.2c-0.3,0-0.6-0.2-0.8-0.5l-3.7-5.2l2.8,28.9c0,0.3-0.1,0.6-0.3,0.8C42.1,48.7,41.8,48.8,41.5,48.8z
			 M12.1,47.5h29.1l-3.1-31.4l1-0.4l0.3,0.4l4.9,7l5-3.9L38.8,4.7l-5.1,0v6.6c0,0.6-0.5,1.1-1.1,1.1H20.8c-0.6,0-1.1-0.5-1.1-1.1
			V4.7l-5.6,0L3,19.2l5.1,4l5.5-7.6l1,0.3l0,0.5L12.1,47.5z M33.5,4.7L33.5,4.7L33.5,4.7z"/>
		<rect x="6.4" y="15.4" transform="matrix(0.6079 -0.794 0.794 0.6079 -12.4452 13.1104)" width="1.3" height="7.5"/>
		<rect x="41.9" y="18.3" transform="matrix(0.806 -0.5919 0.5919 0.806 -2.3742 30.695)" width="7.4" height="1.3"/>
		<rect x="11.9" y="43.8" width="29.5" height="1.3"/>
	</g>
</g>
<g id="Epitoge">
	<g id="Fond_1_">
		<polygon class="st1" points="11.3,7.5 13.9,4.3 15.6,4.3 15.7,34.5 11.3,34.6 		"/>
		<polygon class="st6" points="15.6,34.9 11.3,34.6 11.2,38.1 15.6,38.1 		"/>
	</g>
	<g id="Contours_1_">
		<line class="st7" x1="11.1" y1="34.8" x2="15.6" y2="34.8"/>
		<path d="M15.4,39h-3.8c-0.5,0-0.9-0.4-0.9-0.9l0.1-30.8l2.8-3.5l2.9-0.1l-0.2,34.4C16.3,38.6,15.9,39,15.4,39z M15,38.1L15,38.1
			L15,38.1z M12,37.7h3L15.2,5l-1,0l-2.1,2.7L12,37.7z"/>
	</g>
</g>
</svg>
