<svg id="Penne" xmlns="http://www.w3.org/2000/svg" viewBox="0 0 63 25"><defs><style>.cls-1{fill:#fcfbdb;}.cls-2{fill:#2b2b2b;}.cls-3{fill:#1345f5;}</style></defs><title>Plan de travail 1 copie 16</title><g id="Fond_penne" data-name="Fond penne"><polygon class="cls-1" points="4.9 16.7 8.7 10 13.9 5.3 19.6 2.7 26.7 2.6 29.8 3.7 34.2 5.6 37.5 7.6 39.2 15.5 6 22.2 4.9 16.7"/><polygon class="cls-2" points="58.1 19.2 39.6 15.7 23.7 19.1 26.5 20.3 34 21.8 40.5 22.3 47 22.4 52.5 21.5 57.3 20.4 58.1 19.2"/></g><g id="Ruban"><polyline class="cls-3" points="6.6 21.2 38.5 15.1 37.5 11.3 5.7 17.9 6.6 21.2"/><polyline class="cls-3" points="5.3 19.7 38 13.3 37.5 11.3 5.6 17.9 6.6 21.2"/></g><g id="Contours"><path d="M4,17.1l1.3,5.1a.85.85,0,0,0,.8.7h.2l16-3.1c11.5,4.4,28.3,4,35.9,1.1a1.34,1.34,0,0,0,.8-1.4,1.48,1.48,0,0,0-1.1-1.3l-18-3.1c-2.1-8.3-2-8.3-2.4-8.6C30.7,2,24.3.6,18.5,2.4,8.8,5.4,4.3,16.2,4.1,16.7V17c0,.1,0,0-.1.1Zm21.2,2.1,14.2-2.7,17.9,3.1C53.2,21,37.8,23.4,25.2,19.2ZM36.6,8l1.8,7L6.6,21.2l-.9-3.7.5-1.8C12.5,3.8,22.9-.6,35.4,6.8"/></g></svg>